<svg xmlns="http://www.w3.org/2000/svg" viewBox="0 0 104.633 109.465">
<g>
	<style>
		path {
			fill: #202c44;
		}
		@media (prefers-color-scheme: dark) {
      path {
        fill: white;
      }
    }
	</style>
	<path d="M9.232,85.342V64.375c0-2.881,2.331-5.213,5.207-5.213l0,0c2.878,0,5.21,2.332,5.21,5.213l0,0v20.968
		c0,2.875-2.332,5.206-5.21,5.206l0,0C11.563,90.548,9.232,88.217,9.232,85.342L9.232,85.342z"/>
	<path d="M28.17,94.754V50.437c0-2.875,2.333-5.208,5.208-5.208l0,0c2.878,0,5.208,2.333,5.208,5.208l0,0v44.317
		c0,2.876-2.329,5.206-5.208,5.206l0,0C30.503,99.96,28.17,97.63,28.17,94.754L28.17,94.754z"/>
	<path d="M47.106,85.339V36.926c0-2.877,2.332-5.209,5.209-5.209l0,0c2.877,0,5.208,2.332,5.208,5.209l0,0v48.413
		c0,2.877-2.331,5.209-5.208,5.209l0,0C49.438,90.548,47.106,88.216,47.106,85.339L47.106,85.339z"/>
	<path d="M66.044,104.256V50.439c0-2.878,2.332-5.209,5.209-5.209l0,0c2.877,0,5.209,2.331,5.209,5.209v0.113v53.704
		c0,2.876-2.332,5.209-5.209,5.209l0,0C68.376,109.465,66.044,107.132,66.044,104.256L66.044,104.256z"/>
	<path d="M84.982,85.343V64.376c0-2.883,2.332-5.211,5.209-5.211l0,0c2.877,0,5.208,2.328,5.208,5.211l0,0v20.967
		c0,2.875-2.331,5.205-5.208,5.205l0,0C87.314,90.548,84.982,88.218,84.982,85.343L84.982,85.343z"/>
	<path d="M0.975,43.214c-1.675-2.339-1.14-5.595,1.199-7.269l0,0L52.315,0l50.146,35.945
		c2.335,1.677,2.87,4.93,1.195,7.269l0,0c-1.677,2.336-4.93,2.872-7.267,1.197l0,0L52.315,12.817L8.244,44.411
		c-0.919,0.659-1.98,0.976-3.031,0.976l0,0C3.591,45.387,1.993,44.632,0.975,43.214L0.975,43.214z"/>
</g>
</svg>
