<?xml version="1.0" encoding="UTF-8"?>
<svg id="Logo" xmlns="http://www.w3.org/2000/svg" version="1.1" viewBox="0 0 280.89 65.19">
  <!-- Generator: Adobe Illustrator 30.5.0, SVG Export Plug-In . SVG Version: 2.1.4 Build 167)  -->
  <defs>
    <style>
      .st0 {
        fill: #cb8e49;
      }

      .st1 {
        fill: #503f3d;
      }
    </style>
  </defs>
  <g id="Immobiliem">
    <g>
      <g>
        <path class="st0" d="M226.74,16.72h-7.65v-2.02c0-4.69-3.8-8.49-8.49-8.49s-8.49,3.8-8.49,8.49v10.49c0,4.69,3.8,8.49,8.49,8.49s8.49-3.8,8.49-8.49v-2.02h7.65v-6.45ZM214.05,25.19c0,1.9-1.55,3.45-3.45,3.45s-3.45-1.55-3.45-3.45v-10.49c0-1.9,1.55-3.45,3.45-3.45s3.45,1.55,3.45,3.45v10.49Z"/>
        <path class="st1" d="M279.41,13.22C276.42,5.17,268.5,0,259.9,0h-39.44c-.32,0-.57.26-.57.57v3.69c0,.33.27.57.6.57,3.46.01,6.25,2.82,6.25,6.28v5.61h35.77c1.56,0,2.99,1.05,3.28,2.58.4,2.06-1.17,3.86-3.16,3.86h-2.44c-.23,0-.42.19-.42.42v7.88c0,.24-.19.43-.43.43h-2.47c-.24,0-.43-.19-.43-.43v-5.02c0-.23-.19-.42-.42-.42h-1.95c-.23,0-.42.19-.42.42v3.05c0,.24-.19.43-.43.43h-2.47c-.24,0-.43-.19-.43-.43v-3.05c0-.23-.19-.42-.42-.42h-1.95c-.23,0-.42.19-.42.42v5.02c0,.24-.19.43-.43.43h-2.47c-.24,0-.43-.19-.43-.43v-7.88c0-.23-.19-.42-.42-.42h-16.99v30.74c0,3.46-2.8,6.27-6.26,6.28-.33,0-.6.24-.6.57v3.4c0,.61.26.87.57.87h29.89c.32,0,.57-.26.57-.57v-3.69c0-.33-.27-.57-.6-.57-3.46-.01-6.25-2.82-6.25-6.28v-10.23c0-.68.55-1.23,1.23-1.23h14.36c14.29,0,25.33-14.19,19.75-29.22Z"/>
      </g>
      <g>
        <path class="st1" d="M20.65,4.96c2.23,0,4.26.17,6.1.49,1.84.33,3.42.92,4.72,1.77,1.3.85,2.31,2,3.03,3.46.71,1.46,1.07,3.32,1.07,5.57s-.36,4.2-1.07,5.73c-.71,1.53-1.72,2.75-3.03,3.67-1.31.92-2.88,1.57-4.72,1.95-1.84.38-3.88.57-6.11.57h-8.04v10.09c0,1.6,1.93,2.4,5.78,2.4v2.97H0v-2.97c3.09,0,4.63-.8,4.63-2.4V10.43c0-1.6-1.55-2.4-4.63-2.4v-3.07h20.65ZM12.6,9.33v14.58h7.13c2.81,0,4.82-.64,6.04-1.93,1.21-1.29,1.82-3.19,1.82-5.7,0-2.19-.61-3.9-1.82-5.12-1.22-1.22-3.23-1.83-6.04-1.83h-7.13Z"/>
        <path class="st1" d="M62.23,38.53c0,1.53.52,2.3,1.56,2.3.49,0,.85-.23,1.09-.7.24-.47.36-1,.36-1.59v-3.08h2.45v2.35c0,1.15-.14,2.12-.42,2.92-.28.8-.68,1.44-1.2,1.93-.52.49-1.14.84-1.85,1.04-.71.21-1.48.31-2.32.31-.94,0-1.74-.15-2.4-.44-.66-.29-1.21-.69-1.67-1.17-.45-.49-.8-1.04-1.04-1.67-.24-.62-.43-1.28-.57-1.98-.38.76-.91,1.49-1.59,2.19-.68.69-1.48,1.31-2.42,1.85-.94.54-2,.96-3.18,1.28s-2.45.47-3.8.47c-3.26,0-5.65-.67-7.16-2s-2.27-3.15-2.27-5.44c0-1.39.27-2.54.81-3.46.54-.92,1.28-1.69,2.24-2.32.95-.62,2.07-1.12,3.33-1.48,1.27-.36,2.62-.69,4.06-.99,1.44-.29,2.93-.58,4.48-.86,1.54-.28,3.08-.62,4.61-1.04v-1.61c0-.87-.11-1.68-.34-2.45-.23-.76-.59-1.43-1.09-2-.5-.57-1.14-1.02-1.9-1.35-.76-.33-1.67-.49-2.71-.49-1.77,0-3.25.17-4.45.52-1.2.35-2.16.82-2.89,1.41.8.07,1.47.33,2.03.78.55.45.83,1.09.83,1.93,0,.97-.31,1.76-.94,2.37-.62.61-1.54.91-2.76.91s-2.13-.32-2.73-.96c-.61-.64-.91-1.54-.91-2.68,0-.87.28-1.74.83-2.6.56-.87,1.35-1.64,2.4-2.33,1.04-.69,2.33-1.24,3.88-1.67,1.54-.42,3.31-.64,5.28-.64,1.6,0,3.14.15,4.63.44,1.49.3,2.81.8,3.96,1.51s2.06,1.69,2.73,2.92c.68,1.24,1.01,2.79,1.01,4.67v12.94ZM55.41,29.01c-2.22.56-4.15,1.07-5.78,1.54-1.63.47-2.99.97-4.06,1.51-1.08.54-1.87,1.15-2.39,1.85-.52.69-.78,1.56-.78,2.6,0,1.25.43,2.22,1.3,2.92.87.69,2.19,1.04,3.96,1.04s3.34-.42,4.71-1.28c1.37-.85,2.39-1.83,3.05-2.94v-7.24Z"/>
        <path class="st1" d="M82.24,22.09c1.01-1.98,2.23-3.42,3.67-4.32,1.44-.9,2.99-1.35,4.66-1.35.76,0,1.55.12,2.37.37.81.25,1.55.64,2.21,1.17.66.53,1.2,1.2,1.61,2.02.42.82.62,1.78.62,2.9,0,1.32-.36,2.4-1.07,3.25-.71.85-1.68,1.28-2.89,1.28s-2.13-.32-2.76-.96c-.62-.64-.94-1.41-.94-2.32s.29-1.6.86-2.19c.57-.59,1.45-.9,2.63-.94-.28-.52-.73-.92-1.35-1.2-.62-.28-1.28-.42-1.98-.42-.62,0-1.29.16-2,.47s-1.41.78-2.08,1.41c-.68.62-1.33,1.43-1.95,2.42-.62.99-1.16,2.16-1.61,3.51v11.14c0,.8.43,1.39,1.3,1.77.87.38,2.13.57,3.8.57v2.97h-16.71v-2.97c2.98,0,4.48-.78,4.48-2.34v-15.88c0-1.56-1.49-2.34-4.48-2.34v-2.97h11.61v4.95Z"/>
        <path class="st1" d="M148.32,38.33c0,1.56,1.48,2.34,4.43,2.34v2.97h-15v-2.97c2.29,0,3.44-.78,3.44-2.34v-11.56c0-2.19-.25-3.75-.75-4.69-.5-.94-1.27-1.41-2.31-1.41-1.56,0-3.03.61-4.43,1.82-1.4,1.22-2.58,2.92-3.55,5.1v10.73c0,1.56,1.11,2.34,3.33,2.34v2.97h-13.9v-2.97c2.29,0,3.44-.78,3.44-2.34v-11.56c0-2.19-.26-3.75-.78-4.69-.52-.94-1.31-1.41-2.38-1.41-1.55,0-3.05.61-4.48,1.82-1.43,1.22-2.6,2.92-3.5,5.1v10.73c0,1.56,1.15,2.34,3.44,2.34v2.97h-14.94v-2.97c2.92,0,4.37-.78,4.37-2.34v-15.88c0-1.56-1.46-2.34-4.37-2.34v-2.97h11.51l-.04,5.47c.56-.76,1.19-1.51,1.9-2.24.71-.73,1.51-1.37,2.4-1.93.89-.55,1.87-1,2.95-1.33,1.08-.33,2.28-.49,3.6-.49,1.98,0,3.63.49,4.93,1.48s2.11,2.53,2.43,4.61c1.15-1.7,2.64-3.14,4.48-4.32,1.84-1.18,3.96-1.77,6.35-1.77s4.1.61,5.44,1.82c1.34,1.22,2,3.19,2,5.94v13.95Z"/>
        <path class="st1" d="M181.49,38.53c0,1.53.52,2.3,1.56,2.3.49,0,.85-.23,1.09-.7.24-.47.36-1,.36-1.59v-3.08h2.45v2.35c0,1.15-.14,2.12-.42,2.92-.28.8-.68,1.44-1.2,1.93-.52.49-1.14.84-1.85,1.04-.71.21-1.48.31-2.32.31-.94,0-1.74-.15-2.4-.44-.66-.29-1.21-.69-1.67-1.17-.45-.49-.8-1.04-1.04-1.67-.24-.62-.43-1.28-.57-1.98-.38.76-.91,1.49-1.59,2.19-.68.69-1.48,1.31-2.42,1.85-.94.54-2,.96-3.18,1.28-1.18.31-2.45.47-3.8.47-3.26,0-5.65-.67-7.16-2-1.51-1.34-2.27-3.15-2.27-5.44,0-1.39.27-2.54.81-3.46.54-.92,1.28-1.69,2.24-2.32.95-.62,2.07-1.12,3.33-1.48,1.27-.36,2.62-.69,4.06-.99,1.44-.29,2.93-.58,4.48-.86,1.54-.28,3.08-.62,4.61-1.04v-1.61c0-.87-.11-1.68-.34-2.45-.23-.76-.59-1.43-1.09-2-.5-.57-1.14-1.02-1.9-1.35-.76-.33-1.67-.49-2.71-.49-1.77,0-3.25.17-4.45.52-1.2.35-2.16.82-2.89,1.41.8.07,1.47.33,2.03.78.55.45.83,1.09.83,1.93,0,.97-.31,1.76-.94,2.37-.62.61-1.54.91-2.76.91s-2.13-.32-2.73-.96c-.61-.64-.91-1.54-.91-2.68,0-.87.28-1.74.83-2.6.56-.87,1.35-1.64,2.4-2.33,1.04-.69,2.33-1.24,3.88-1.67,1.54-.42,3.31-.64,5.28-.64,1.6,0,3.14.15,4.63.44,1.49.3,2.81.8,3.96,1.51s2.06,1.69,2.73,2.92c.68,1.24,1.01,2.79,1.01,4.67v12.94ZM174.67,29.01c-2.22.56-4.15,1.07-5.78,1.54-1.63.47-2.99.97-4.06,1.51-1.08.54-1.87,1.15-2.39,1.85-.52.69-.78,1.56-.78,2.6,0,1.25.43,2.22,1.3,2.92.87.69,2.19,1.04,3.96,1.04s3.34-.42,4.71-1.28c1.37-.85,2.39-1.83,3.05-2.94v-7.24Z"/>
      </g>
      <g>
        <path class="st0" d="M43.26,55.48h2.1v9.55h-2.1v-9.55Z"/>
        <path class="st0" d="M53.66,55.48h2.26l2.51,4.04,2.51-4.04h2.26v9.55h-2.09v-6.23l-2.69,4.08h-.05l-2.66-4.04v6.19h-2.06v-9.55Z"/>
        <path class="st0" d="M71.49,55.48h2.26l2.51,4.04,2.51-4.04h2.26v9.55h-2.09v-6.23l-2.69,4.08h-.05l-2.66-4.04v6.19h-2.06v-9.55Z"/>
        <path class="st0" d="M88.84,60.28v-.03c0-2.71,2.14-4.94,5.09-4.94s5.06,2.2,5.06,4.91v.03c0,2.71-2.14,4.94-5.09,4.94s-5.06-2.2-5.06-4.91ZM96.79,60.28v-.03c0-1.64-1.2-3-2.89-3s-2.86,1.34-2.86,2.97v.03c0,1.64,1.2,3,2.89,3s2.86-1.34,2.86-2.97Z"/>
        <path class="st0" d="M106.75,55.48h4.43c1.09,0,1.95.3,2.5.85.44.44.65.97.65,1.62v.03c0,1.08-.57,1.68-1.25,2.06,1.1.42,1.79,1.06,1.79,2.35v.03c0,1.75-1.42,2.62-3.57,2.62h-4.54v-9.55ZM110.74,59.34c.93,0,1.51-.3,1.51-1.01v-.03c0-.63-.49-.98-1.38-.98h-2.07v2.02h1.94ZM111.3,63.18c.93,0,1.49-.33,1.49-1.04v-.03c0-.64-.48-1.04-1.55-1.04h-2.43v2.1h2.5Z"/>
        <path class="st0" d="M122.66,55.48h2.1v9.55h-2.1v-9.55Z"/>
        <path class="st0" d="M133.06,55.48h2.1v7.64h4.76v1.91h-6.86v-9.55Z"/>
        <path class="st0" d="M147.32,55.48h2.1v9.55h-2.1v-9.55Z"/>
        <path class="st0" d="M157.72,55.48h7.2v1.87h-5.11v1.94h4.5v1.87h-4.5v2.01h5.18v1.87h-7.27v-9.55Z"/>
        <path class="st0" d="M172.9,55.48h1.94l4.47,5.88v-5.88h2.07v9.55h-1.79l-4.62-6.07v6.07h-2.07v-9.55Z"/>
      </g>
    </g>
  </g>
</svg>