<?xml version="1.0" encoding="UTF-8"?>
<svg id="Ebene_1" xmlns="http://www.w3.org/2000/svg" version="1.1" viewBox="0 0 266.31 163.87">
  <!-- Generator: Adobe Illustrator 30.5.0, SVG Export Plug-In . SVG Version: 2.1.4 Build 167)  -->
  <defs>
    <style>
      .st0 {
        fill: #cb8e49;
      }

      .st1 {
        fill: #503f3d;
      }
    </style>
  </defs>
  <g id="Immobilien">
    <g>
      <path class="st0" d="M34.79,150.05h2.99v13.6h-2.99v-13.6Z"/>
      <path class="st0" d="M49.6,150.05h3.22l3.57,5.75,3.57-5.75h3.22v13.6h-2.97v-8.88l-3.83,5.81h-.08l-3.79-5.75v8.82h-2.93v-13.6h.02Z"/>
      <path class="st0" d="M75,150.05h3.22l3.57,5.75,3.57-5.75h3.23v13.6h-2.97v-8.88l-3.83,5.81h-.08l-3.79-5.75v8.82h-2.93v-13.6h.01Z"/>
      <path class="st0" d="M99.71,156.88v-.04c0-3.87,3.05-7.03,7.25-7.03s7.21,3.13,7.21,6.99v.04c0,3.87-3.05,7.03-7.25,7.03s-7.21-3.13-7.21-6.99ZM111.03,156.88v-.04c0-2.33-1.71-4.27-4.12-4.27s-4.08,1.9-4.08,4.24v.04c0,2.33,1.71,4.27,4.12,4.27s4.08-1.9,4.08-4.24Z"/>
      <path class="st0" d="M125.23,150.05h6.31c1.55,0,2.78.43,3.55,1.2.62.62.93,1.38.93,2.31v.04c0,1.53-.82,2.39-1.79,2.93,1.57.6,2.54,1.52,2.54,3.34v.04c0,2.49-2.02,3.73-5.09,3.73h-6.47v-13.6h.02ZM130.9,155.54c1.32,0,2.16-.43,2.16-1.44v-.04c0-.89-.7-1.4-1.96-1.4h-2.95v2.87h2.76,0ZM131.69,161.02c1.32,0,2.12-.47,2.12-1.48v-.04c0-.91-.68-1.48-2.21-1.48h-3.46v2.99h3.56,0Z"/>
      <path class="st0" d="M147.88,150.05h2.99v13.6h-2.99v-13.6Z"/>
      <path class="st0" d="M162.7,150.05h2.99v10.88h6.78v2.72h-9.77v-13.6Z"/>
      <path class="st0" d="M183,150.05h2.99v13.6h-2.99v-13.6Z"/>
      <path class="st0" d="M197.82,150.05h10.26v2.66h-7.28v2.76h6.41v2.66h-6.41v2.86h7.38v2.66h-10.35v-13.6h0Z"/>
      <path class="st0" d="M219.44,150.05h2.76l6.37,8.37v-8.37h2.95v13.6h-2.54l-6.59-8.65v8.65h-2.95v-13.6h0Z"/>
    </g>
  </g>
  <g id="Parma">
    <g>
      <path class="st1" d="M29.42,78.09c3.17,0,6.07.24,8.69.7,2.62.47,4.86,1.31,6.72,2.52s3.29,2.86,4.31,4.93c1.02,2.08,1.52,4.72,1.52,7.93s-.51,5.98-1.52,8.16c-1.02,2.18-2.45,3.92-4.31,5.23s-4.1,2.24-6.73,2.78c-2.63.54-5.52.82-8.7.82h-11.45v14.37c0,2.28,2.74,3.43,8.23,3.43v4.23H0v-4.23c4.4,0,6.6-1.14,6.6-3.42v-39.66c0-2.28-2.2-3.42-6.6-3.42v-4.38h29.42ZM17.96,84.32v20.76h10.16c4,0,6.87-.92,8.6-2.75,1.73-1.84,2.6-4.54,2.6-8.11,0-3.13-.87-5.56-2.6-7.29-1.73-1.74-4.6-2.6-8.6-2.6h-10.16Z"/>
      <path class="st1" d="M88.65,125.91c0,2.18.74,3.27,2.23,3.27.69,0,1.21-.33,1.56-1,.34-.67.52-1.42.52-2.27v-4.38h3.49v3.34c0,1.63-.2,3.02-.59,4.16-.4,1.14-.96,2.06-1.71,2.75-.74.69-1.62,1.19-2.63,1.49-1.01.3-2.11.44-3.3.44-1.34,0-2.47-.21-3.41-.63s-1.73-.98-2.37-1.67-1.14-1.48-1.48-2.37c-.35-.89-.62-1.83-.82-2.82-.54,1.09-1.3,2.13-2.26,3.12-.96.99-2.11,1.87-3.45,2.63-1.34.77-2.84,1.37-4.52,1.82s-3.48.67-5.41.67c-4.65,0-8.05-.95-10.2-2.86s-3.23-4.49-3.23-7.75c0-1.98.38-3.62,1.15-4.93.77-1.31,1.83-2.41,3.19-3.3s2.94-1.59,4.75-2.11c1.8-.52,3.73-.99,5.78-1.41,2.05-.42,4.18-.83,6.38-1.22s4.39-.89,6.56-1.48v-2.3c0-1.24-.16-2.4-.48-3.49-.32-1.09-.84-2.04-1.56-2.86s-1.62-1.46-2.71-1.93-2.37-.7-3.86-.7c-2.52,0-4.64.25-6.34.74-1.71.49-3.08,1.16-4.12,2,1.14.1,2.1.47,2.89,1.11s1.19,1.56,1.19,2.74c0,1.38-.45,2.51-1.34,3.37-.89.87-2.2,1.3-3.93,1.3s-3.03-.46-3.89-1.37c-.86-.91-1.3-2.19-1.3-3.82,0-1.23.39-2.47,1.19-3.71.79-1.23,1.93-2.34,3.41-3.32s3.32-1.77,5.52-2.37c2.2-.6,4.71-.91,7.53-.91,2.27,0,4.47.21,6.6.63s4,1.14,5.64,2.16,2.93,2.4,3.89,4.16,1.45,3.98,1.45,6.65v18.42h0ZM78.94,112.35c-3.16.79-5.91,1.52-8.23,2.19-2.32.67-4.25,1.38-5.78,2.15-1.53.77-2.67,1.64-3.41,2.63-.74.99-1.11,2.22-1.11,3.71,0,1.78.62,3.16,1.85,4.15,1.24.99,3.12,1.48,5.64,1.48s4.76-.6,6.71-1.82c1.95-1.21,3.4-2.61,4.34-4.19v-10.31h0Z"/>
      <path class="st1" d="M117.15,102.49c1.43-2.82,3.18-4.87,5.23-6.15,2.05-1.29,4.26-1.93,6.64-1.93,1.09,0,2.21.18,3.37.53,1.16.35,2.21.91,3.15,1.66.94.76,1.71,1.72,2.3,2.88.59,1.17.89,2.54.89,4.12,0,1.88-.51,3.42-1.52,4.64-1.01,1.21-2.39,1.82-4.12,1.82s-3.04-.46-3.93-1.37c-.89-.91-1.33-2.01-1.33-3.3s.41-2.27,1.22-3.12c.82-.84,2.06-1.28,3.75-1.33-.4-.74-1.04-1.31-1.93-1.71-.89-.39-1.83-.59-2.82-.59-.89,0-1.84.22-2.86.67-1.02.45-2,1.11-2.97,2-.96.89-1.89,2.04-2.78,3.45s-1.66,3.08-2.3,5.01v15.87c0,1.14.62,1.98,1.85,2.52,1.24.54,3.04.82,5.41.82v4.23h-23.8v-4.23c4.25,0,6.38-1.11,6.38-3.34v-22.62c0-2.22-2.13-3.34-6.38-3.34v-4.23h16.54v7.04h0Z"/>
      <path class="st1" d="M211.26,125.63c0,2.22,2.1,3.34,6.3,3.34v4.23h-21.36v-4.23c3.26,0,4.89-1.11,4.89-3.34v-16.46c0-3.11-.36-5.34-1.07-6.67s-1.81-2-3.28-2c-2.22,0-4.32.87-6.31,2.6-1.99,1.73-3.68,4.15-5.06,7.27v15.28c0,2.22,1.58,3.34,4.75,3.34v4.23h-19.8v-4.23c3.26,0,4.89-1.11,4.89-3.34v-16.46c0-3.11-.37-5.34-1.11-6.67s-1.87-2-3.4-2c-2.21,0-4.34.87-6.38,2.6-2.04,1.73-3.7,4.15-4.98,7.27v15.28c0,2.22,1.63,3.34,4.89,3.34v4.23h-21.28v-4.23c4.15,0,6.23-1.11,6.23-3.34v-22.62c0-2.22-2.08-3.34-6.23-3.34v-4.23h16.39l-.06,7.79c.79-1.09,1.7-2.15,2.71-3.19,1.02-1.04,2.16-1.95,3.42-2.74s2.66-1.42,4.2-1.89,3.25-.7,5.13-.7c2.83,0,5.17.7,7.03,2.11s3.01,3.6,3.46,6.56c1.63-2.42,3.76-4.47,6.38-6.15,2.62-1.68,5.64-2.52,9.05-2.52s5.85.87,7.75,2.6c1.9,1.73,2.85,4.55,2.85,8.45v19.87-.04h0Z"/>
      <path class="st1" d="M258.51,125.91c0,2.18.74,3.27,2.23,3.27.69,0,1.21-.33,1.56-1,.34-.67.52-1.42.52-2.27v-4.38h3.49v3.34c0,1.63-.2,3.02-.59,4.16-.4,1.14-.96,2.06-1.71,2.75-.74.69-1.62,1.19-2.63,1.49s-2.11.44-3.3.44c-1.34,0-2.47-.21-3.41-.63s-1.73-.98-2.37-1.67c-.64-.69-1.14-1.48-1.48-2.37-.35-.89-.62-1.83-.82-2.82-.54,1.09-1.3,2.13-2.26,3.12-.96.99-2.11,1.87-3.45,2.63-1.34.77-2.84,1.37-4.52,1.82s-3.48.67-5.41.67c-4.65,0-8.05-.95-10.2-2.86-2.15-1.9-3.23-4.49-3.23-7.75,0-1.98.38-3.62,1.15-4.93.77-1.31,1.83-2.41,3.19-3.3s2.94-1.59,4.75-2.11c1.8-.52,3.73-.99,5.78-1.41s4.18-.83,6.38-1.22,4.39-.89,6.56-1.48v-2.3c0-1.24-.16-2.4-.48-3.49-.32-1.09-.84-2.04-1.56-2.86s-1.62-1.46-2.71-1.93-2.37-.7-3.86-.7c-2.52,0-4.64.25-6.34.74-1.71.49-3.08,1.16-4.12,2,1.14.1,2.1.47,2.89,1.11s1.19,1.56,1.19,2.74c0,1.38-.45,2.51-1.34,3.37-.89.87-2.2,1.3-3.93,1.3s-3.03-.46-3.89-1.37c-.86-.91-1.3-2.19-1.3-3.82,0-1.23.39-2.47,1.19-3.71.79-1.23,1.93-2.34,3.41-3.32s3.32-1.77,5.52-2.37c2.2-.6,4.71-.91,7.53-.91,2.27,0,4.47.21,6.6.63s4,1.14,5.64,2.16c1.63,1.02,2.93,2.4,3.89,4.16.96,1.76,1.45,3.98,1.45,6.65v18.42h-.01ZM248.8,112.35c-3.16.79-5.91,1.52-8.23,2.19s-4.25,1.38-5.78,2.15c-1.53.77-2.67,1.64-3.41,2.63s-1.11,2.22-1.11,3.71c0,1.78.62,3.16,1.85,4.15,1.24.99,3.12,1.48,5.64,1.48s4.76-.6,6.71-1.82c1.95-1.21,3.4-2.61,4.34-4.19v-10.31h-.01Z"/>
    </g>
  </g>
  <g id="Icon">
    <path class="st1" d="M173.21,13.88c-3.14-8.46-11.45-13.88-20.47-13.88h-41.38c-.33,0-.6.27-.6.6v3.87c0,.34.29.6.63.6,3.63,0,6.56,2.96,6.56,6.59v5.88h37.53c1.64,0,3.13,1.11,3.44,2.71.41,2.16-1.23,4.05-3.32,4.05h-2.56c-.24,0-.44.2-.44.44v8.27c0,.25-.2.46-.46.46h-2.59c-.25,0-.46-.2-.46-.46v-5.27c0-.24-.2-.44-.44-.44h-2.05c-.24,0-.44.2-.44.44v3.2c0,.25-.2.46-.46.46h-2.59c-.25,0-.46-.2-.46-.46v-3.2c0-.24-.2-.44-.44-.44h-2.05c-.24,0-.44.2-.44.44v5.27c0,.25-.2.46-.46.46h-2.59c-.25,0-.46-.2-.46-.46v-8.27c0-.24-.2-.44-.44-.44h-17.83v32.26c0,3.63-2.94,6.58-6.57,6.59-.34,0-.62.25-.62.6v3.56c0,.65.27.91.6.91h31.36c.33,0,.6-.27.6-.6v-3.87c0-.34-.29-.6-.63-.6-3.63-.01-6.56-2.96-6.56-6.59v-10.73c0-.71.58-1.29,1.29-1.29h15.07c14.99,0,26.57-14.89,20.72-30.66h.01Z"/>
    <path class="st0" d="M117.95,17.55h-8.03v-2.12c0-4.92-3.99-8.91-8.91-8.91s-8.91,3.99-8.91,8.91v11.01c0,4.92,3.99,8.91,8.91,8.91s8.91-3.99,8.91-8.91v-2.12h8.03v-6.76h0ZM104.63,26.43c0,2-1.63,3.62-3.62,3.62s-3.62-1.63-3.62-3.62v-11.01c0-2,1.63-3.62,3.62-3.62s3.62,1.63,3.62,3.62v11.01Z"/>
  </g>
</svg>